<?xml version="1.0" standalone="no"?>
<!DOCTYPE svg PUBLIC "-//W3C//DTD SVG 20010904//EN"
 "http://www.w3.org/TR/2001/REC-SVG-20010904/DTD/svg10.dtd">
<svg version="1.0" xmlns="http://www.w3.org/2000/svg"
 width="500.000000pt" height="500.000000pt" viewBox="0 0 500.000000 500.000000"
 preserveAspectRatio="xMidYMid meet">

<g transform="translate(0.000000,500.000000) scale(0.100000,-0.100000)"
fill="#000000" stroke="none">
<path d="M2308 4458 c-19 -40 -39 -83 -42 -95 -4 -13 -12 -23 -17 -23 -5 0 -9
-5 -9 -11 0 -6 -16 -43 -35 -82 -19 -39 -35 -76 -35 -83 0 -18 24 -24 91 -24
68 0 68 0 136 143 l37 77 102 0 102 0 23 -57 c12 -32 31 -69 41 -82 10 -13 18
-30 18 -37 0 -29 31 -44 90 -44 65 0 90 7 90 24 0 6 -40 90 -88 186 l-88 175
-190 3 -190 2 -36 -72z m456 -119 l75 -150 -36 3 c-36 3 -38 6 -90 111 l-54
108 -126 -3 -125 -3 -55 -107 c-54 -105 -56 -108 -89 -108 -19 0 -34 1 -34 3
0 3 127 256 140 280 9 15 28 17 165 17 l155 0 74 -151z"/>
<path d="M1568 4084 c-42 -13 -85 -47 -127 -99 -20 -24 -32 -219 -29 -439 l3
-171 46 -3 47 -3 7 -47 c3 -26 8 -55 11 -64 4 -12 -2 -19 -21 -24 -34 -8 -79
-70 -101 -137 -9 -29 -20 -57 -25 -63 -10 -13 -66 -278 -84 -394 -29 -200 -31
-179 25 -249 27 -34 50 -64 50 -66 0 -2 -41 -3 -91 -4 -50 0 -92 -1 -93 -3 0
-2 -60 -122 -133 -268 l-131 -265 26 -22 c39 -32 63 -38 77 -19 7 9 20 26 29
39 50 68 45 66 45 22 1 -35 -16 -253 -50 -660 -6 -71 -9 -177 -6 -235 6 -153
12 -160 188 -244 30 -15 89 -45 130 -67 135 -73 218 -109 270 -119 80 -15
1729 -16 1804 -1 56 12 136 49 440 205 148 76 148 77 147 285 -1 86 -6 208
-11 271 -6 63 -17 203 -25 310 -9 107 -18 220 -20 250 -4 49 -3 53 9 35 8 -11
18 -24 22 -30 5 -5 19 -25 31 -42 13 -18 27 -33 32 -33 14 0 79 44 80 54 0 6
-59 128 -131 273 l-131 263 -47 1 c-25 1 -61 1 -78 0 -55 -4 -55 7 -3 75 39
51 48 70 44 92 -3 15 -14 83 -24 152 -50 339 -126 559 -203 591 -26 11 -28 15
-22 48 16 96 13 91 60 91 31 0 45 5 49 17 7 18 -2 471 -10 541 -7 60 -81 137
-149 158 -72 21 -1857 20 -1927 -2z m1914 -44 c44 -13 93 -54 106 -90 6 -14
13 -139 17 -278 l8 -252 -1077 0 -1077 0 2 228 c0 126 5 248 9 271 9 50 56
103 103 119 44 14 1858 16 1909 2z m-1612 -990 l0 -320 -51 0 c-69 0 -130 31
-158 80 -11 21 -21 47 -21 58 0 11 -9 67 -21 125 -11 58 -28 156 -39 219 -10
62 -21 123 -25 136 l-7 22 161 0 161 0 0 -320z m210 -75 l0 -396 -82 3 -83 3
-3 393 -3 392 86 0 85 0 0 -395z m890 75 l0 -320 -420 0 -420 0 0 320 0 320
420 0 420 0 0 -320z m210 -75 l0 -395 -80 0 -80 0 0 395 0 395 80 0 80 0 0
-395z m328 353 c-5 -24 -22 -119 -39 -213 -41 -239 -46 -267 -57 -296 -16 -40
-75 -79 -132 -86 l-50 -6 0 322 0 321 144 0 143 0 -9 -42z m-1928 -388 c16
-97 27 -134 48 -165 34 -50 102 -85 182 -92 l60 -6 0 -48 c0 -46 -2 -49 -25
-49 l-25 0 0 -214 c0 -118 3 -221 6 -230 3 -9 15 -16 25 -16 16 0 19 -8 19
-45 l0 -44 -107 -3 -108 -3 0 -365 0 -364 40 -12 40 -11 5 -269 c6 -306 10
-323 91 -380 l42 -29 662 0 661 0 37 25 c21 14 50 43 65 65 l27 40 5 275 5
274 37 9 c24 6 38 15 42 30 3 12 6 173 6 357 0 248 -3 339 -12 348 -7 7 -44
12 -95 12 l-83 0 0 44 c0 39 3 45 23 48 22 3 22 3 25 231 l2 227 -25 0 c-23 0
-25 3 -25 49 l0 48 44 6 c71 10 121 35 156 78 34 42 31 33 85 339 8 47 15 88
15 93 0 4 11 0 25 -9 27 -18 63 -86 88 -169 50 -163 106 -496 93 -548 -3 -14
-47 -74 -97 -133 -100 -121 -95 -100 -65 -243 25 -118 47 -292 59 -480 15
-243 -8 -591 -59 -882 -9 -52 -18 -108 -21 -126 -6 -41 -16 -48 -89 -70 -54
-16 -134 -18 -869 -21 -800 -3 -917 0 -1018 30 -58 17 -55 9 -93 238 -46 281
-67 720 -44 925 27 251 42 354 61 432 l21 82 -38 48 c-22 26 -41 50 -44 53 -6
6 -91 109 -108 131 -27 36 63 526 117 636 12 23 21 46 21 52 0 5 15 22 33 37
l32 27 12 -69 c6 -38 21 -125 33 -194z m1390 -310 c0 -47 -2 -50 -25 -50 l-25
0 2 -227 c3 -228 3 -228 26 -231 19 -3 22 -9 22 -48 l0 -44 -420 0 -420 0 0
45 c0 38 3 45 20 45 29 0 31 21 28 250 -3 204 -3 205 -25 208 -20 3 -23 9 -23
53 l0 49 420 0 420 0 0 -50z m-830 -280 l0 -180 -140 0 -140 0 0 180 0 180
140 0 140 0 0 -180z m1090 0 l0 -180 -135 0 -135 0 0 180 0 180 135 0 135 0 0
-180z m-1986 -92 c-3 -13 -20 -52 -36 -88 -16 -36 -39 -89 -50 -118 -34 -89
-142 -261 -165 -262 -7 0 -13 2 -13 4 0 2 54 112 121 245 76 151 126 241 136
241 10 0 12 -6 7 -22z m194 -14 c34 -39 34 -32 6 -147 -42 -174 -67 -567 -54
-840 9 -179 34 -443 46 -480 8 -25 32 -177 28 -177 -10 0 -342 174 -354 186
-20 20 -18 350 4 604 9 102 23 267 31 368 16 195 11 177 100 377 12 28 30 71
40 98 l18 47 52 0 c46 0 54 -3 83 -36z m2331 14 c5 -13 22 -52 39 -88 16 -36
33 -76 37 -90 4 -14 19 -47 33 -75 23 -44 28 -73 43 -255 10 -113 25 -293 34
-400 18 -210 25 -499 13 -541 -5 -18 -26 -35 -70 -59 -175 -92 -292 -150 -295
-146 -2 2 1 28 7 57 18 88 48 325 59 468 27 340 3 753 -60 1028 -11 49 -10 52
17 87 27 33 33 36 82 36 45 0 54 -3 61 -22z m198 -223 c68 -138 116 -245 109
-245 -7 0 -24 17 -38 38 -14 20 -43 64 -65 97 -22 33 -50 87 -62 120 -13 33
-26 64 -31 70 -7 9 -60 150 -60 161 0 2 6 4 13 4 6 0 67 -111 134 -245z
m-1887 -125 l0 -210 -85 0 -85 0 1 210 2 210 83 0 84 0 0 -210z m1100 0 l0
-210 -80 0 -80 0 0 210 0 210 80 0 80 0 0 -210z m-1310 -89 c0 -136 2 -160 16
-165 20 -8 208 -8 228 0 14 5 16 29 16 165 l0 159 420 0 420 0 2 -162 3 -163
125 0 125 0 3 163 2 162 70 0 70 0 0 -324 0 -324 -42 -11 c-24 -5 -63 -15 -88
-21 -62 -16 -282 -49 -410 -62 -125 -12 -620 -5 -700 11 -30 6 -114 19 -186
30 -72 11 -156 28 -187 38 l-57 17 0 323 0 323 85 0 85 0 0 -159z m45 -586
c310 -56 676 -69 977 -35 174 19 283 36 361 55 l27 7 0 -256 c0 -174 -4 -264
-11 -279 -18 -33 -65 -76 -91 -82 -13 -3 -312 -4 -666 -3 l-643 3 -35 38 c-20
21 -40 55 -45 75 -4 20 -8 142 -9 270 l0 234 27 -6 c16 -4 64 -14 108 -21z"/>
<path d="M2473 3234 c-23 -15 -44 -37 -47 -48 -24 -88 22 -155 106 -156 146
-1 157 198 13 225 -22 5 -41 -1 -72 -21z m113 -52 c44 -57 -18 -131 -83 -100
-38 18 -44 77 -13 108 26 26 74 22 96 -8z"/>
<path d="M1917 2484 c-4 -4 -7 -65 -7 -136 l0 -129 88 3 87 3 0 130 0 130 -80
3 c-45 1 -84 0 -88 -4z m123 -129 l0 -85 -40 0 -40 0 0 85 0 85 40 0 40 0 0
-85z"/>
<path d="M3015 2477 c-3 -7 -4 -67 -3 -133 l3 -119 85 0 85 0 0 130 0 130 -83
3 c-62 2 -84 -1 -87 -11z m135 -122 l0 -85 -50 0 -50 0 0 85 0 85 50 0 50 0 0
-85z"/>
<path d="M2453 1475 c-60 -63 -38 -155 44 -186 43 -16 88 -3 123 38 29 32 32
41 27 82 -7 61 -52 100 -117 101 -38 0 -50 -5 -77 -35z m122 -30 c59 -58 -3
-143 -76 -104 -59 31 -30 125 39 128 7 1 24 -10 37 -24z"/>
<path d="M2356 92 c-3 -5 1 -9 9 -9 8 0 12 4 9 9 -3 4 -7 8 -9 8 -2 0 -6 -4
-9 -8z"/>
</g>
</svg>
